<?xml version="1.0" encoding="UTF-8"?>
<svg version="1.1" xmlns="http://www.w3.org/2000/svg" width="1536" height="1024">
<path d="M0 0 C1.7083011 1.63213129 3.3565861 3.3014996 5 5 C4.67 5.66 4.34 6.32 4 7 C2.94683594 6.40832031 1.89367187 5.81664062 0.80859375 5.20703125 C-32.2494931 -13.04229926 -71.69782292 -15.65480461 -107.94726562 -5.60058594 C-132.04760108 1.45065398 -152.96829472 14.66629621 -171 32 C-171.70286133 32.66418945 -171.70286133 32.66418945 -172.41992188 33.34179688 C-204.7512112 63.99135464 -220.70318217 106.77161583 -226.875 150.125 C-226.97863861 150.84954376 -227.08227722 151.57408752 -227.1890564 152.32058716 C-231.41814375 182.41494891 -231.10135445 213.06300559 -230.9921875 243.390625 C-230.98643581 245.13813301 -230.98643581 245.13813301 -230.98056793 246.92094421 C-230.94374181 257.82676666 -230.89850406 268.73251957 -230.82861328 279.63818359 C-230.79057327 285.67504362 -230.76783774 291.71180927 -230.75430679 297.74877167 C-230.74637999 300.00814242 -230.73296059 302.26750229 -230.71337509 304.52680206 C-230.45668993 334.58772267 -233.47031154 364.45637856 -254 388 C-255.03253906 389.21236328 -255.03253906 389.21236328 -256.0859375 390.44921875 C-269.8801271 406.25203596 -285.82258319 416.85109765 -305 425 C-305.96421875 425.40992188 -306.9284375 425.81984375 -307.921875 426.2421875 C-321.5158993 431.55621518 -337.43534967 435.09572891 -352 435 C-352.06876926 405.20790158 -352.12169855 375.41580585 -352.15319599 345.62364488 C-352.15694711 342.08853331 -352.16083017 338.55342189 -352.16479492 335.01831055 C-352.16558185 334.31467585 -352.16636878 333.61104116 -352.16717956 332.88608421 C-352.18015417 321.56471457 -352.20376298 310.24339168 -352.23145839 298.92204957 C-352.25973591 287.26356486 -352.27622284 275.60510425 -352.28226548 263.94658667 C-352.28614236 257.41576515 -352.29511295 250.88504885 -352.31719017 244.3542614 C-352.53456698 177.41717021 -347.01366316 113.2782097 -307 57 C-306.57879883 56.40590332 -306.15759766 55.81180664 -305.72363281 55.19970703 C-300.52596422 47.92336807 -300.52596422 47.92336807 -298 45 C-297.34 45 -296.68 45 -296 45 C-295.77570312 44.45859375 -295.55140625 43.9171875 -295.3203125 43.359375 C-293.58710049 40.2621559 -291.28928453 37.81966332 -288.875 35.25 C-288.38 34.71850342 -287.885 34.18700684 -287.375 33.6394043 C-285.92290469 32.08691315 -284.46294592 30.54226226 -283 29 C-281.95199219 27.88818359 -281.95199219 27.88818359 -280.8828125 26.75390625 C-275.64369956 21.35175037 -269.92994773 16.62385798 -264 12 C-263.46020508 11.57847656 -262.92041016 11.15695312 -262.36425781 10.72265625 C-226.77646811 -16.83181849 -182.88928809 -33.42186834 -138 -37 C-136.73414063 -37.10957031 -135.46828125 -37.21914063 -134.1640625 -37.33203125 C-86.80277315 -40.99398661 -36.62010547 -32.11264866 0 0 Z " fill="#1BCA8F" transform="translate(926,299)"/>
<path d="M0 0 C0 0.66 0 1.32 0 2 C0.55558594 2.21527344 1.11117187 2.43054688 1.68359375 2.65234375 C4.75987612 4.44208645 6.81177289 6.8628408 9.0625 9.5625 C9.77660034 10.41654419 9.77660034 10.41654419 10.50512695 11.2878418 C37.5041021 44.35948086 49.06611523 86.69460929 48 129 C47.98743164 129.6820752 47.97486328 130.36415039 47.96191406 131.06689453 C47.22108661 165.89334449 38.55536425 200.32623391 22 231 C21.67386719 231.61214355 21.34773438 232.22428711 21.01171875 232.85498047 C16.38786231 241.47865696 11.06658998 249.32281091 5 257 C4.36449219 257.82886719 3.72898437 258.65773438 3.07421875 259.51171875 C-5.52392185 270.56647095 -14.83024671 280.51514092 -26 289 C-27.09538918 289.86936709 -28.19042499 290.73917957 -29.28515625 291.609375 C-54.68641603 311.41016277 -86.04091682 322.3536461 -117.97265625 324.83691406 C-119.71325548 324.97693336 -121.45089609 325.15291307 -123.1875 325.3359375 C-157.0862643 328.81997716 -193.81593064 323.91870328 -224.6875 309.375 C-226.18543091 308.67407227 -226.18543091 308.67407227 -227.71362305 307.95898438 C-228.63699463 307.50587891 -229.56036621 307.05277344 -230.51171875 306.5859375 C-231.33115967 306.1842334 -232.15060059 305.7825293 -232.99487305 305.36865234 C-235.37412181 303.74463328 -236.08964295 302.72101701 -237 300 C-237.21118164 297.48803711 -237.21118164 297.48803711 -237.16015625 294.52734375 C-237.14855469 293.34897949 -237.13695312 292.17061523 -237.125 290.95654297 C-237.1146875 290.30764099 -237.104375 289.65873901 -237.09375 288.99017334 C-237.03736633 285.28658147 -237.01995673 281.58286282 -237.00390625 277.87890625 C-236.99799973 276.58521118 -236.99799973 276.58521118 -236.99197388 275.26538086 C-236.95619063 261.07617139 -237.23761371 246.8870151 -237.46311569 232.70003128 C-237.50012962 230.36682958 -237.53665524 228.03362071 -237.57302856 225.70040894 C-237.71188577 216.80021508 -237.85403357 207.9000804 -238 199 C-237.01 199 -236.02 199 -235 199 C-234.79246094 199.58265625 -234.58492187 200.1653125 -234.37109375 200.765625 C-229.55254684 213.58820173 -222.57534909 223.41069268 -213 233 C-212.34257813 233.66902344 -211.68515625 234.33804687 -211.0078125 235.02734375 C-205.15144013 240.56953305 -198.09536785 244.29455134 -191 248 C-190.18917969 248.42539062 -189.37835937 248.85078125 -188.54296875 249.2890625 C-169.23918198 258.1464918 -143.63728058 256.90293636 -124.0625 249.6875 C-102.37279206 240.53204539 -85.68964115 224.60503911 -73 205 C-72.36578125 204.02675781 -71.7315625 203.05351563 -71.078125 202.05078125 C-51.08428639 169.62714475 -44.11365387 125.24706721 -52.45214844 88.20458984 C-56.48597966 71.97219415 -62.66523272 56.53826574 -74 44 C-74.62648438 43.29230469 -75.25296875 42.58460938 -75.8984375 41.85546875 C-89.45574002 27.38512341 -108.30658205 21.71566075 -127.59765625 20.8359375 C-157.51833923 20.18741038 -182.78387854 31.69791795 -204.671875 51.71484375 C-207.77944318 54.76505748 -210.61804704 58.00524082 -213.40625 61.34765625 C-213.9321875 61.89292969 -214.458125 62.43820312 -215 63 C-215.66 63 -216.32 63 -217 63 C-215.12414107 56.48476562 -212.54158207 50.97891911 -208.9375 45.25 C-208.45869385 44.47865723 -207.9798877 43.70731445 -207.48657227 42.91259766 C-203.11853663 35.98428625 -198.49805384 29.08982089 -193 23 C-192.34 23 -191.68 23 -191 23 C-190.76539063 22.443125 -190.53078125 21.88625 -190.2890625 21.3125 C-177.83133169 -1.03591405 -143.27250673 -17.43968048 -119.859375 -24.46069336 C-77.77400857 -36.29720267 -33.12491198 -29.63549246 0 0 Z " fill="#1BCA8F" transform="translate(942,329)"/>
<path d="M0 0 C0.33 0 0.66 0 1 0 C1.87454688 6.00620629 2.14007899 11.81902047 2.12025452 17.88354492 C2.12110894 18.85001513 2.12196337 19.81648533 2.12284368 20.81224251 C2.12448443 24.03500374 2.11900018 27.25771235 2.11352539 30.48046875 C2.11324319 32.79689025 2.1134019 35.11331183 2.1139679 37.42973328 C2.11425458 43.70799279 2.10837855 49.98623316 2.10139394 56.26448822 C2.09513908 62.82948204 2.09455491 69.39447631 2.09336853 75.95947266 C2.09078098 86.97510103 2.08436989 97.9907227 2.07543945 109.00634766 C2.06625286 120.34977178 2.05917813 131.693194 2.05493164 143.03662109 C2.05466892 143.73646327 2.05440619 144.43630544 2.05413551 145.15735495 C2.05283042 148.66844661 2.05156672 152.17953828 2.05032361 155.69062996 C2.039966 184.79375786 2.02228618 213.89687884 2 243 C3.21236328 242.78778809 3.21236328 242.78778809 4.44921875 242.57128906 C5.51785156 242.38791992 6.58648438 242.20455078 7.6875 242.015625 C8.74324219 241.83290039 9.79898438 241.65017578 10.88671875 241.46191406 C13.61601229 241.05697183 16.24605267 240.84192633 19 240.75 C33.16803467 239.54377483 46.91484398 233.78497946 59.24072266 226.97167969 C60.88139109 226.06550978 62.53975335 225.19158249 64.19921875 224.3203125 C75.56961419 218.10746898 85.12110017 209.3617403 94 200 C94 203.59428874 92.96317416 204.46828187 90.54760742 206.97167969 C90.03689697 207.47602539 89.52618652 207.98037109 89 208.5 C88.46673096 209.02754883 87.93346191 209.55509766 87.3840332 210.09863281 C64.79142321 231.73225965 30.3861599 246.20629146 -1 246 C-1.02282048 215.81638291 -1.04051375 185.63276612 -1.05106533 155.44914231 C-1.05231601 151.88438913 -1.05361034 148.31963597 -1.05493164 144.75488281 C-1.05519395 144.04521498 -1.05545626 143.33554715 -1.05572652 142.60437423 C-1.06007592 131.11875858 -1.06795946 119.63314794 -1.0771528 108.14753526 C-1.08650962 96.35920759 -1.09205991 84.57088253 -1.09408849 72.78255129 C-1.09533659 66.16251996 -1.09845887 59.54249796 -1.10573006 52.92247009 C-1.11251887 46.69111083 -1.11461111 40.45976761 -1.11310768 34.228405 C-1.11338272 31.94193306 -1.11537086 29.65546059 -1.11920547 27.36899185 C-1.12418738 24.24512041 -1.12298166 21.12130939 -1.12025452 17.99743652 C-1.12316736 17.09469356 -1.1260802 16.1919506 -1.12908131 15.26185179 C-1.11688195 10.08459555 -0.74773427 5.12447609 0 0 Z " fill="#1EAD72" transform="translate(575,488)"/>
<path d="M0 0 C0.99 0 1.98 0 3 0 C3.20753906 0.58265625 3.41507813 1.1653125 3.62890625 1.765625 C7.95001456 13.2644739 13.89492226 22.41506241 22.3515625 31.2109375 C25.04634804 34.048809 27.52498901 36.97101544 30 40 C17.74953755 34.94886145 10.37282933 20.19652693 4 10 C3.67 38.38 3.34 66.76 3 96 C2.67 96 2.34 96 2 96 C0.96107482 85.1876803 0.78677998 74.42740303 0.68359375 63.57421875 C0.66297391 61.73191414 0.64197632 59.88961373 0.62062073 58.0473175 C0.56591858 53.24215125 0.51628481 48.43694607 0.46777344 43.63171387 C0.4171751 38.71082166 0.36169093 33.78998468 0.30664062 28.86914062 C0.19969524 19.24614113 0.09811413 9.62309331 0 0 Z " fill="#1A9D65" transform="translate(704,528)"/>
<path d="M0 0 C0.33 0 0.66 0 1 0 C1.21591117 6.68649905 0.53377922 12.56236743 -1 19.0625 C-1.22075195 20.00786621 -1.44150391 20.95323242 -1.66894531 21.92724609 C-8.71247068 50.9639173 -20.07675606 80.27950978 -40 103 C-40 98.91507075 -38.39547364 97.70934907 -35.875 94.5 C-21.15794904 74.76644829 -11.90313066 51.34460562 -5.5625 27.75 C-5.30275391 26.78481445 -5.04300781 25.81962891 -4.77539062 24.82519531 C-3.47672125 19.73605705 -2.82873571 15.2886412 -3 10 C-2.67 9.01 -2.34 8.02 -2 7 C-1.34 7 -0.68 7 0 7 C0 4.69 0 2.38 0 0 Z " fill="#189159" transform="translate(986,484)"/>
<path d="M0 0 C5.09579764 1.799597 8.90543665 4.69850536 13.203125 7.91015625 C14.92277331 9.19508899 16.65924728 10.45828319 18.421875 11.68359375 C19.12828125 12.17988281 19.8346875 12.67617188 20.5625 13.1875 C21.18253906 13.61417969 21.80257812 14.04085938 22.44140625 14.48046875 C24.43539293 16.42448083 25.11758308 18.38787031 26 21 C24.42412109 20.20335937 24.42412109 20.20335937 22.81640625 19.390625 C15.61062046 15.76028149 8.41929102 12.17969615 1 9 C5 8 5 8 9 7 C8.3503125 6.57847656 7.700625 6.15695312 7.03125 5.72265625 C5.77828125 4.90087891 5.77828125 4.90087891 4.5 4.0625 C3.6646875 3.51722656 2.829375 2.97195313 1.96875 2.41015625 C1.3190625 1.94480469 0.669375 1.47945313 0 1 C0 0.67 0 0.34 0 0 Z " fill="#1CB47A" transform="translate(905,285)"/>
<path d="M0 0 C0 4.29535316 -2.42640043 6.8583536 -4.8125 10.25 C-8.16895056 15.02851306 -10.87395057 19.54714232 -13 25 C-12.443125 24.21625 -11.88625 23.4325 -11.3125 22.625 C-8.92331435 19.91295142 -7.39926587 19.03866457 -4 18 C-5.39985164 19.63885071 -6.80079312 21.27678227 -8.20703125 22.91015625 C-9.44135012 24.34885035 -10.66746951 25.79460656 -11.88671875 27.24609375 C-12.50160156 27.96925781 -13.11648438 28.69242187 -13.75 29.4375 C-14.60851562 30.45650391 -14.60851562 30.45650391 -15.484375 31.49609375 C-17 33 -17 33 -19 33 C-17.09489025 26.29031097 -14.33752774 20.69735815 -10.625 14.8125 C-9.92117188 13.66104492 -9.92117188 13.66104492 -9.203125 12.48632812 C-6.42754866 8.01243644 -3.47188059 3.95794388 0 0 Z " fill="#189F65" transform="translate(744,359)"/>
<path d="M0 0 C0.66 0.33 1.32 0.66 2 1 C1.33411865 1.60473145 1.33411865 1.60473145 0.65478516 2.22167969 C-1.3607558 4.05840139 -3.3679029 5.90405668 -5.375 7.75 C-6.07367187 8.38421875 -6.77234375 9.0184375 -7.4921875 9.671875 C-8.1625 10.290625 -8.8328125 10.909375 -9.5234375 11.546875 C-10.14138184 12.11245117 -10.75932617 12.67802734 -11.39599609 13.26074219 C-13.06982362 15.07571133 -13.97672853 16.76772429 -15 19 C-17.49898327 21.99877993 -20.74167243 23.9001889 -24 26 C-22.79618552 23.50638429 -21.54571278 21.31856917 -20 19 C-19.34 19 -18.68 19 -18 19 C-17.66935547 18.18015625 -17.66935547 18.18015625 -17.33203125 17.34375 C-15.57684729 14.25544977 -13.20902112 11.95789708 -10.6875 9.5 C-10.21376953 9.02691406 -9.74003906 8.55382812 -9.25195312 8.06640625 C-6.31597478 5.16657538 -3.26491068 2.52153394 0 0 Z " fill="#179B64" transform="translate(769,333)"/>
<path d="M0 0 C0.66 0.33 1.32 0.66 2 1 C-2.49767005 5.60532704 -7.086536 9.99696446 -11.96875 14.19140625 C-15.46571091 17.30504645 -18.72967735 20.65139835 -22 24 C-22 21 -22 21 -20.73413086 19.37768555 C-20.15026611 18.8031665 -19.56640137 18.22864746 -18.96484375 17.63671875 C-18.31966797 16.99669922 -17.67449219 16.35667969 -17.00976562 15.69726562 C-16.32591797 15.03404297 -15.64207031 14.37082031 -14.9375 13.6875 C-14.28072266 13.03587891 -13.62394531 12.38425781 -12.94726562 11.71289062 C-8.78224211 7.61352266 -4.47716648 3.75523066 0 0 Z " fill="#1FD699" transform="translate(658,316)"/>
<path d="M0 0 C0.66 0.33 1.32 0.66 2 1 C-1.85179748 6.27682146 -4.43455029 8.54101118 -11 10 C-13.35959458 11.49486846 -13.35959458 11.49486846 -15 13 C-15.66 12.67 -16.32 12.34 -17 12 C-15.10642909 10.55943648 -13.21027278 9.1225099 -11.3125 7.6875 C-10.78205078 7.28337891 -10.25160156 6.87925781 -9.70507812 6.46289062 C-6.57826326 4.10339229 -3.490287 1.7909879 0 0 Z " fill="#19B076" transform="translate(788,320)"/>
<path d="M0 0 C1.423125 0.495 1.423125 0.495 2.875 1 C5.77062452 2.10159191 5.77062452 2.10159191 8 2 C11 2 11 2 13.6875 4.3125 C16 7 16 7 16 10 C10.72 7.03 5.44 4.06 0 1 C0 0.67 0 0.34 0 0 Z " fill="#1D9E66" transform="translate(914,296)"/>
<path d="M0 0 C0.33 0 0.66 0 1 0 C1.43630637 8.28982104 -0.22032737 15.95969329 -2 24 C-4.26316991 20.60524513 -4.17045826 19.93198488 -3.6875 16.0625 C-3.58824219 15.20785156 -3.48898437 14.35320312 -3.38671875 13.47265625 C-3.04159973 11.26598618 -2.58470623 9.15391782 -2 7 C-1.34 7 -0.68 7 0 7 C0 4.69 0 2.38 0 0 Z " fill="#1B9D64" transform="translate(986,484)"/>
<path d="M0 0 C0.99 0 1.98 0 3 0 C3.87890625 6.15234375 3.87890625 6.15234375 4 8 C3.67 8.33 3.34 8.66 3 9 C2.63239269 11.32817964 2.29758419 13.6618385 2 16 C1.67 16 1.34 16 1 16 C0.83191581 13.89594609 0.66558052 11.79175242 0.5 9.6875 C0.4071875 8.51574219 0.314375 7.34398437 0.21875 6.13671875 C0.07635011 4.094806 0 2.0468721 0 0 Z " fill="#23B97E" transform="translate(704,528)"/>
<path d="M0 0 C0.66 0.66 1.32 1.32 2 2 C-2.5 5 -2.5 5 -7 8 C-5.79618552 5.50638429 -4.54571278 3.31856917 -3 1 C-2.01 0.67 -1.02 0.34 0 0 Z " fill="#18B177" transform="translate(752,351)"/>
<path d="M0 0 C0.66 1.32 1.32 2.64 2 4 C1.34 4 0.68 4 0 4 C-0.268125 4.61875 -0.53625 5.2375 -0.8125 5.875 C-2 8 -2 8 -5 10 C-3.84414715 6.08788267 -2.64465038 3.1254959 0 0 Z " fill="#21D99C" transform="translate(735,375)"/>
<path d="M0 0 C0.33 0 0.66 0 1 0 C1 2.31 1 4.62 1 7 C0.67 7 0.34 7 0 7 C0 4.69 0 2.38 0 0 Z " fill="#27BF86" transform="translate(572,523)"/>
<path d="M0 0 C1 4 1 4 1 4 Z " fill="#29B47E" transform="translate(572,716)"/>
<path d="M0 0 C1 4 1 4 1 4 Z " fill="#28B882" transform="translate(572,708)"/>
<path d="M0 0 C1 4 1 4 1 4 Z " fill="#27BB83" transform="translate(572,684)"/>
<path d="M0 0 C1 4 1 4 1 4 Z " fill="#27BD84" transform="translate(572,660)"/>
<path d="M0 0 C1 4 1 4 1 4 Z " fill="#26BE85" transform="translate(572,652)"/>
<path d="M0 0 C1 4 1 4 1 4 Z " fill="#27BD85" transform="translate(572,636)"/>
<path d="M0 0 C1 4 1 4 1 4 Z " fill="#26BD84" transform="translate(572,596)"/>
<path d="M0 0 C1 4 1 4 1 4 Z " fill="#27BD84" transform="translate(572,572)"/>
<path d="M0 0 C1 4 1 4 1 4 Z " fill="#26BE87" transform="translate(572,548)"/>
<path d="" fill="#26BD85" transform="translate(0,0)"/>
<path d="" fill="#26BE86" transform="translate(0,0)"/>
<path d="" fill="#28BD84" transform="translate(0,0)"/>
<path d="" fill="#464746" transform="translate(0,0)"/>
<path d="M0 0 C2 1 2 1 2 1 Z " fill="#454645" transform="translate(1090,979)"/>
<path d="M0 0 C2 1 2 1 2 1 Z " fill="#434444" transform="translate(1090,955)"/>
<path d="" fill="#414440" transform="translate(0,0)"/>
<path d="M0 0 C2 1 2 1 2 1 Z " fill="#414342" transform="translate(1090,931)"/>
<path d="" fill="#353C37" transform="translate(0,0)"/>
<path d="M0 0 C2 1 2 1 2 1 Z " fill="#393E3B" transform="translate(1090,843)"/>
<path d="" fill="#2A4336" transform="translate(0,0)"/>
<path d="" fill="#28B27C" transform="translate(0,0)"/>
<path d="" fill="#28B880" transform="translate(0,0)"/>
<path d="M0 0 C2 1 2 1 2 1 Z " fill="#2C4B3D" transform="translate(1090,699)"/>
<path d="" fill="#28BC82" transform="translate(0,0)"/>
<path d="" fill="#28BD85" transform="translate(0,0)"/>
<path d="M0 0 C2 1 2 1 2 1 Z " fill="#2C5141" transform="translate(1090,667)"/>
<path d="M0 0 C2 1 2 1 2 1 Z " fill="#21BF85" transform="translate(816,655)"/>
<path d="" fill="#27C186" transform="translate(0,0)"/>
<path d="M0 0 C2 1 2 1 2 1 Z " fill="#2C5A47" transform="translate(1090,619)"/>
<path d="M0 0 C2 1 2 1 2 1 Z " fill="#2C5D47" transform="translate(1090,611)"/>
<path d="" fill="#26BF85" transform="translate(0,0)"/>
<path d="" fill="#27BD85" transform="translate(0,0)"/>
<path d="" fill="#26BE86" transform="translate(0,0)"/>
<path d="" fill="#20C68F" transform="translate(0,0)"/>
<path d="" fill="#27BF87" transform="translate(0,0)"/>
<path d="M0 0 C2 1 2 1 2 1 Z " fill="#2D6F55" transform="translate(1090,531)"/>
<path d="" fill="#24CB8E" transform="translate(0,0)"/>
<path d="M0 0 C2 1 2 1 2 1 Z " fill="#2D7055" transform="translate(1090,387)"/>
<path d="M0 0 C2 1 2 1 2 1 Z " fill="#24C98D" transform="translate(727,369)"/>
<path d="" fill="#2C8562" transform="translate(0,0)"/>
<path d="M0 0 C2 1 2 1 2 1 Z " fill="#2A6C52" transform="translate(1090,355)"/>
<path d="M0 0 C2 1 2 1 2 1 Z " fill="#22C891" transform="translate(797,351)"/>
<path d="M0 0 C2 1 2 1 2 1 Z " fill="#404340" transform="translate(1090,59)"/>
<path d="M0 0 C2 1 2 1 2 1 Z " fill="#424443" transform="translate(1090,35)"/>
<path d="" fill="#474946" transform="translate(0,0)"/>
<path d="" fill="#4B4B4A" transform="translate(0,0)"/>
<path d="" fill="#484747" transform="translate(0,0)"/>
<path d="" fill="#444746" transform="translate(0,0)"/>
<path d="" fill="#434643" transform="translate(0,0)"/>
<path d="" fill="#424445" transform="translate(0,0)"/>
<path d="" fill="#474749" transform="translate(0,0)"/>
<path d="" fill="#484847" transform="translate(0,0)"/>
<path d="" fill="#454644" transform="translate(0,0)"/>
<path d="" fill="#434746" transform="translate(0,0)"/>
<path d="" fill="#484B48" transform="translate(0,0)"/>
<path d="" fill="#484947" transform="translate(0,0)"/>
<path d="" fill="#464A46" transform="translate(0,0)"/>
<path d="" fill="#454845" transform="translate(0,0)"/>
<path d="" fill="#424644" transform="translate(0,0)"/>
<path d="" fill="#434541" transform="translate(0,0)"/>
<path d="" fill="#4A4A49" transform="translate(0,0)"/>
<path d="" fill="#474746" transform="translate(0,0)"/>
<path d="" fill="#484848" transform="translate(0,0)"/>
<path d="" fill="#454644" transform="translate(0,0)"/>
<path d="" fill="#474845" transform="translate(0,0)"/>
<path d="" fill="#464745" transform="translate(0,0)"/>
<path d="" fill="#444643" transform="translate(0,0)"/>
<path d="" fill="#434641" transform="translate(0,0)"/>
<path d="" fill="#434643" transform="translate(0,0)"/>
<path d="" fill="#494948" transform="translate(0,0)"/>
<path d="" fill="#494949" transform="translate(0,0)"/>
<path d="" fill="#464945" transform="translate(0,0)"/>
<path d="" fill="#4A4B4B" transform="translate(0,0)"/>
<path d="" fill="#414543" transform="translate(0,0)"/>
<path d="" fill="#404543" transform="translate(0,0)"/>
<path d="" fill="#464847" transform="translate(0,0)"/>
<path d="" fill="#484747" transform="translate(0,0)"/>
<path d="" fill="#484647" transform="translate(0,0)"/>
<path d="" fill="#494A48" transform="translate(0,0)"/>
<path d="" fill="#444643" transform="translate(0,0)"/>
<path d="" fill="#454644" transform="translate(0,0)"/>
<path d="" fill="#484947" transform="translate(0,0)"/>
<path d="" fill="#464945" transform="translate(0,0)"/>
<path d="" fill="#424443" transform="translate(0,0)"/>
<path d="" fill="#4B4A4A" transform="translate(0,0)"/>
<path d="" fill="#424543" transform="translate(0,0)"/>
<path d="" fill="#434442" transform="translate(0,0)"/>
<path d="" fill="#464846" transform="translate(0,0)"/>
<path d="" fill="#494A4A" transform="translate(0,0)"/>
<path d="" fill="#484A48" transform="translate(0,0)"/>
<path d="" fill="#464845" transform="translate(0,0)"/>
<path d="" fill="#4A4A4B" transform="translate(0,0)"/>
<path d="" fill="#4B4D4C" transform="translate(0,0)"/>
<path d="" fill="#404542" transform="translate(0,0)"/>
<path d="" fill="#434341" transform="translate(0,0)"/>
<path d="" fill="#404340" transform="translate(0,0)"/>
<path d="" fill="#464746" transform="translate(0,0)"/>
<path d="" fill="#49494B" transform="translate(0,0)"/>
<path d="" fill="#464746" transform="translate(0,0)"/>
<path d="" fill="#424644" transform="translate(0,0)"/>
<path d="" fill="#424443" transform="translate(0,0)"/>
<path d="" fill="#4A4B4A" transform="translate(0,0)"/>
<path d="" fill="#404443" transform="translate(0,0)"/>
<path d="" fill="#404241" transform="translate(0,0)"/>
<path d="" fill="#464646" transform="translate(0,0)"/>
<path d="" fill="#49494A" transform="translate(0,0)"/>
<path d="" fill="#434644" transform="translate(0,0)"/>
<path d="" fill="#404440" transform="translate(0,0)"/>
<path d="" fill="#464644" transform="translate(0,0)"/>
<path d="" fill="#444645" transform="translate(0,0)"/>
<path d="" fill="#414543" transform="translate(0,0)"/>
<path d="" fill="#454845" transform="translate(0,0)"/>
<path d="" fill="#494C4A" transform="translate(0,0)"/>
<path d="" fill="#404441" transform="translate(0,0)"/>
<path d="" fill="#454744" transform="translate(0,0)"/>
<path d="" fill="#444544" transform="translate(0,0)"/>
<path d="" fill="#414342" transform="translate(0,0)"/>
<path d="" fill="#494A4A" transform="translate(0,0)"/>
<path d="" fill="#4A4B4A" transform="translate(0,0)"/>
<path d="" fill="#454645" transform="translate(0,0)"/>
<path d="" fill="#3F4240" transform="translate(0,0)"/>
<path d="" fill="#434744" transform="translate(0,0)"/>
<path d="" fill="#444744" transform="translate(0,0)"/>
<path d="" fill="#424441" transform="translate(0,0)"/>
<path d="" fill="#404542" transform="translate(0,0)"/>
<path d="" fill="#444543" transform="translate(0,0)"/>
<path d="" fill="#424443" transform="translate(0,0)"/>
<path d="" fill="#40423F" transform="translate(0,0)"/>
<path d="" fill="#434643" transform="translate(0,0)"/>
<path d="" fill="#494A4A" transform="translate(0,0)"/>
<path d="" fill="#3E4240" transform="translate(0,0)"/>
<path d="" fill="#434744" transform="translate(0,0)"/>
<path d="" fill="#434443" transform="translate(0,0)"/>
<path d="" fill="#464745" transform="translate(0,0)"/>
<path d="" fill="#484849" transform="translate(0,0)"/>
<path d="" fill="#424642" transform="translate(0,0)"/>
<path d="" fill="#484A4A" transform="translate(0,0)"/>
<path d="" fill="#3B413E" transform="translate(0,0)"/>
<path d="" fill="#424643" transform="translate(0,0)"/>
<path d="" fill="#434444" transform="translate(0,0)"/>
<path d="" fill="#3E4340" transform="translate(0,0)"/>
<path d="" fill="#424542" transform="translate(0,0)"/>
<path d="" fill="#3E413E" transform="translate(0,0)"/>
<path d="" fill="#3F4641" transform="translate(0,0)"/>
<path d="" fill="#464746" transform="translate(0,0)"/>
<path d="" fill="#424442" transform="translate(0,0)"/>
<path d="" fill="#3C413D" transform="translate(0,0)"/>
<path d="" fill="#424644" transform="translate(0,0)"/>
<path d="" fill="#424542" transform="translate(0,0)"/>
<path d="" fill="#494846" transform="translate(0,0)"/>
<path d="" fill="#414341" transform="translate(0,0)"/>
<path d="" fill="#3B433E" transform="translate(0,0)"/>
<path d="" fill="#454546" transform="translate(0,0)"/>
<path d="" fill="#414441" transform="translate(0,0)"/>
<path d="" fill="#474848" transform="translate(0,0)"/>
<path d="" fill="#484A47" transform="translate(0,0)"/>
<path d="" fill="#4A4B4A" transform="translate(0,0)"/>
<path d="" fill="#3A403D" transform="translate(0,0)"/>
<path d="" fill="#3B3F3B" transform="translate(0,0)"/>
<path d="" fill="#404543" transform="translate(0,0)"/>
<path d="" fill="#494A49" transform="translate(0,0)"/>
<path d="" fill="#3C413E" transform="translate(0,0)"/>
<path d="" fill="#41433F" transform="translate(0,0)"/>
<path d="" fill="#3D433E" transform="translate(0,0)"/>
<path d="" fill="#3D403F" transform="translate(0,0)"/>
<path d="" fill="#3B403D" transform="translate(0,0)"/>
<path d="" fill="#3A433A" transform="translate(0,0)"/>
<path d="" fill="#444543" transform="translate(0,0)"/>
<path d="" fill="#484849" transform="translate(0,0)"/>
<path d="" fill="#4A4A4A" transform="translate(0,0)"/>
<path d="" fill="#404441" transform="translate(0,0)"/>
<path d="" fill="#3C403D" transform="translate(0,0)"/>
<path d="" fill="#373F3C" transform="translate(0,0)"/>
<path d="" fill="#494A49" transform="translate(0,0)"/>
<path d="" fill="#3A403B" transform="translate(0,0)"/>
<path d="" fill="#3A3D3B" transform="translate(0,0)"/>
<path d="" fill="#3F4642" transform="translate(0,0)"/>
<path d="" fill="#3D4440" transform="translate(0,0)"/>
<path d="" fill="#3B3F3D" transform="translate(0,0)"/>
<path d="" fill="#4A4A4A" transform="translate(0,0)"/>
<path d="" fill="#404242" transform="translate(0,0)"/>
<path d="" fill="#404240" transform="translate(0,0)"/>
<path d="" fill="#3A453F" transform="translate(0,0)"/>
<path d="" fill="#4C4C4B" transform="translate(0,0)"/>
<path d="" fill="#39443E" transform="translate(0,0)"/>
<path d="" fill="#3E473F" transform="translate(0,0)"/>
<path d="" fill="#484A4A" transform="translate(0,0)"/>
<path d="" fill="#3A3F3B" transform="translate(0,0)"/>
<path d="" fill="#3E4542" transform="translate(0,0)"/>
<path d="" fill="#414140" transform="translate(0,0)"/>
<path d="" fill="#3B403D" transform="translate(0,0)"/>
<path d="" fill="#4A4B49" transform="translate(0,0)"/>
<path d="" fill="#373F3A" transform="translate(0,0)"/>
<path d="" fill="#3E423F" transform="translate(0,0)"/>
<path d="" fill="#3A403C" transform="translate(0,0)"/>
<path d="" fill="#3D423E" transform="translate(0,0)"/>
<path d="" fill="#4A4B4A" transform="translate(0,0)"/>
<path d="" fill="#363E3A" transform="translate(0,0)"/>
<path d="" fill="#3C4641" transform="translate(0,0)"/>
<path d="" fill="#3F423F" transform="translate(0,0)"/>
<path d="" fill="#393F3B" transform="translate(0,0)"/>
<path d="" fill="#334137" transform="translate(0,0)"/>
<path d="" fill="#343E38" transform="translate(0,0)"/>
<path d="" fill="#3C4640" transform="translate(0,0)"/>
<path d="" fill="#3D413D" transform="translate(0,0)"/>
<path d="" fill="#373F3B" transform="translate(0,0)"/>
<path d="" fill="#39463F" transform="translate(0,0)"/>
<path d="" fill="#363E38" transform="translate(0,0)"/>
<path d="" fill="#424443" transform="translate(0,0)"/>
<path d="" fill="#4A4B4B" transform="translate(0,0)"/>
<path d="" fill="#3B413C" transform="translate(0,0)"/>
<path d="" fill="#4B4B4A" transform="translate(0,0)"/>
<path d="" fill="#353C37" transform="translate(0,0)"/>
<path d="" fill="#394740" transform="translate(0,0)"/>
<path d="" fill="#4A4B4A" transform="translate(0,0)"/>
<path d="" fill="#41443F" transform="translate(0,0)"/>
<path d="" fill="#3C413D" transform="translate(0,0)"/>
<path d="" fill="#363E39" transform="translate(0,0)"/>
<path d="" fill="#474746" transform="translate(0,0)"/>
<path d="" fill="#494847" transform="translate(0,0)"/>
<path d="" fill="#3E413E" transform="translate(0,0)"/>
<path d="" fill="#39483E" transform="translate(0,0)"/>
<path d="" fill="#424443" transform="translate(0,0)"/>
<path d="" fill="#3A413B" transform="translate(0,0)"/>
<path d="" fill="#494A48" transform="translate(0,0)"/>
<path d="" fill="#4B4C4B" transform="translate(0,0)"/>
<path d="" fill="#323C37" transform="translate(0,0)"/>
<path d="" fill="#384940" transform="translate(0,0)"/>
<path d="" fill="#363D39" transform="translate(0,0)"/>
<path d="" fill="#333C35" transform="translate(0,0)"/>
<path d="" fill="#3A403A" transform="translate(0,0)"/>
<path d="" fill="#474946" transform="translate(0,0)"/>
<path d="" fill="#323C36" transform="translate(0,0)"/>
<path d="" fill="#384941" transform="translate(0,0)"/>
<path d="" fill="#384039" transform="translate(0,0)"/>
<path d="" fill="#303A35" transform="translate(0,0)"/>
<path d="" fill="#374A41" transform="translate(0,0)"/>
<path d="" fill="#4B4B4B" transform="translate(0,0)"/>
<path d="" fill="#414240" transform="translate(0,0)"/>
<path d="" fill="#3B3E3B" transform="translate(0,0)"/>
<path d="" fill="#323B34" transform="translate(0,0)"/>
<path d="" fill="#484A49" transform="translate(0,0)"/>
<path d="" fill="#2F3B33" transform="translate(0,0)"/>
<path d="" fill="#374C41" transform="translate(0,0)"/>
<path d="" fill="#393D3B" transform="translate(0,0)"/>
<path d="" fill="#303C34" transform="translate(0,0)"/>
<path d="" fill="#364D42" transform="translate(0,0)"/>
<path d="" fill="#3F4440" transform="translate(0,0)"/>
<path d="" fill="#494A4A" transform="translate(0,0)"/>
<path d="" fill="#4C4E4C" transform="translate(0,0)"/>
<path d="" fill="#2C3C32" transform="translate(0,0)"/>
<path d="" fill="#354F43" transform="translate(0,0)"/>
<path d="" fill="#4B4D4C" transform="translate(0,0)"/>
<path d="" fill="#353D38" transform="translate(0,0)"/>
<path d="" fill="#2F3C36" transform="translate(0,0)"/>
<path d="" fill="#50504F" transform="translate(0,0)"/>
<path d="" fill="#3F4440" transform="translate(0,0)"/>
<path d="" fill="#4D4E4C" transform="translate(0,0)"/>
<path d="" fill="#2B3C32" transform="translate(0,0)"/>
<path d="" fill="#355144" transform="translate(0,0)"/>
<path d="" fill="#40423F" transform="translate(0,0)"/>
<path d="" fill="#383F3A" transform="translate(0,0)"/>
<path d="" fill="#315443" transform="translate(0,0)"/>
<path d="" fill="#4C4E4B" transform="translate(0,0)"/>
<path d="" fill="#334137" transform="translate(0,0)"/>
<path d="" fill="#4E4E4D" transform="translate(0,0)"/>
<path d="" fill="#2A3D33" transform="translate(0,0)"/>
<path d="" fill="#345345" transform="translate(0,0)"/>
<path d="" fill="#363F3A" transform="translate(0,0)"/>
<path d="" fill="#4B4F4C" transform="translate(0,0)"/>
<path d="" fill="#2F3E35" transform="translate(0,0)"/>
<path d="" fill="#4E4F4C" transform="translate(0,0)"/>
<path d="" fill="#303E36" transform="translate(0,0)"/>
<path d="" fill="#293D33" transform="translate(0,0)"/>
<path d="" fill="#4C4E4E" transform="translate(0,0)"/>
<path d="" fill="#35413A" transform="translate(0,0)"/>
<path d="" fill="#4D4E4D" transform="translate(0,0)"/>
<path d="" fill="#263E34" transform="translate(0,0)"/>
<path d="" fill="#335847" transform="translate(0,0)"/>
<path d="" fill="#4C4E4D" transform="translate(0,0)"/>
<path d="" fill="#3F413F" transform="translate(0,0)"/>
<path d="" fill="#344038" transform="translate(0,0)"/>
<path d="" fill="#4A4B4B" transform="translate(0,0)"/>
<path d="" fill="#293F33" transform="translate(0,0)"/>
<path d="" fill="#3E4440" transform="translate(0,0)"/>
<path d="" fill="#4D4E4D" transform="translate(0,0)"/>
<path d="" fill="#304236" transform="translate(0,0)"/>
<path d="" fill="#4D4E4E" transform="translate(0,0)"/>
<path d="" fill="#313F37" transform="translate(0,0)"/>
<path d="" fill="#284034" transform="translate(0,0)"/>
<path d="" fill="#335C49" transform="translate(0,0)"/>
<path d="" fill="#4D4E4E" transform="translate(0,0)"/>
<path d="" fill="#4E504D" transform="translate(0,0)"/>
<path d="" fill="#35403A" transform="translate(0,0)"/>
<path d="" fill="#2B3F35" transform="translate(0,0)"/>
<path d="" fill="#3D4440" transform="translate(0,0)"/>
<path d="" fill="#314237" transform="translate(0,0)"/>
<path d="" fill="#2B4235" transform="translate(0,0)"/>
<path d="" fill="#494D49" transform="translate(0,0)"/>
<path d="" fill="#4D4F4E" transform="translate(0,0)"/>
<path d="" fill="#264135" transform="translate(0,0)"/>
<path d="" fill="#325F4B" transform="translate(0,0)"/>
<path d="" fill="#4D4E4E" transform="translate(0,0)"/>
<path d="" fill="#3D423F" transform="translate(0,0)"/>
<path d="" fill="#33413A" transform="translate(0,0)"/>
<path d="" fill="#284236" transform="translate(0,0)"/>
<path d="" fill="#2A5841" transform="translate(0,0)"/>
<path d="" fill="#274336" transform="translate(0,0)"/>
<path d="" fill="#3E453F" transform="translate(0,0)"/>
<path d="" fill="#304237" transform="translate(0,0)"/>
<path d="" fill="#4E504F" transform="translate(0,0)"/>
<path d="" fill="#2D4237" transform="translate(0,0)"/>
<path d="" fill="#264436" transform="translate(0,0)"/>
<path d="" fill="#32614C" transform="translate(0,0)"/>
<path d="" fill="#2E4438" transform="translate(0,0)"/>
<path d="" fill="#264737" transform="translate(0,0)"/>
<path d="" fill="#274836" transform="translate(0,0)"/>
<path d="" fill="#316650" transform="translate(0,0)"/>
<path d="" fill="#4D4F4F" transform="translate(0,0)"/>
<path d="" fill="#33433A" transform="translate(0,0)"/>
<path d="" fill="#26503B" transform="translate(0,0)"/>
<path d="" fill="#39443B" transform="translate(0,0)"/>
<path d="" fill="#264938" transform="translate(0,0)"/>
<path d="" fill="#3D453F" transform="translate(0,0)"/>
<path d="" fill="#4A4D4A" transform="translate(0,0)"/>
<path d="" fill="#2D4638" transform="translate(0,0)"/>
<path d="" fill="#4F4F4D" transform="translate(0,0)"/>
<path d="" fill="#254937" transform="translate(0,0)"/>
<path d="" fill="#4D4E4E" transform="translate(0,0)"/>
<path d="" fill="#32433A" transform="translate(0,0)"/>
<path d="" fill="#4B4C4B" transform="translate(0,0)"/>
<path d="" fill="#3D4440" transform="translate(0,0)"/>
<path d="" fill="#2D4738" transform="translate(0,0)"/>
<path d="" fill="#4D4F4E" transform="translate(0,0)"/>
<path d="" fill="#404440" transform="translate(0,0)"/>
<path d="" fill="#234C3A" transform="translate(0,0)"/>
<path d="" fill="#336D54" transform="translate(0,0)"/>
<path d="" fill="#4D4E4E" transform="translate(0,0)"/>
<path d="" fill="#32433A" transform="translate(0,0)"/>
<path d="" fill="#2D4639" transform="translate(0,0)"/>
<path d="" fill="#25583F" transform="translate(0,0)"/>
<path d="" fill="#2D8765" transform="translate(0,0)"/>
<path d="" fill="#36443C" transform="translate(0,0)"/>
<path d="" fill="#4B4E4D" transform="translate(0,0)"/>
<path d="" fill="#4E504E" transform="translate(0,0)"/>
<path d="" fill="#234F3C" transform="translate(0,0)"/>
<path d="" fill="#337256" transform="translate(0,0)"/>
<path d="" fill="#4E4F4E" transform="translate(0,0)"/>
<path d="" fill="#274A3B" transform="translate(0,0)"/>
<path d="" fill="#267051" transform="translate(0,0)"/>
<path d="" fill="#27503D" transform="translate(0,0)"/>
<path d="" fill="#2B4A39" transform="translate(0,0)"/>
<path d="" fill="#4A4F49" transform="translate(0,0)"/>
<path d="" fill="#4E504E" transform="translate(0,0)"/>
<path d="" fill="#24523E" transform="translate(0,0)"/>
<path d="" fill="#327359" transform="translate(0,0)"/>
<path d="" fill="#2B483A" transform="translate(0,0)"/>
<path d="" fill="#284C3B" transform="translate(0,0)"/>
<path d="" fill="#2CA375" transform="translate(0,0)"/>
<path d="" fill="#4E514F" transform="translate(0,0)"/>
<path d="" fill="#255640" transform="translate(0,0)"/>
<path d="" fill="#33775A" transform="translate(0,0)"/>
<path d="" fill="#2BAA7A" transform="translate(0,0)"/>
<path d="" fill="#2F473B" transform="translate(0,0)"/>
<path d="" fill="#2B4B3C" transform="translate(0,0)"/>
<path d="" fill="#264F3C" transform="translate(0,0)"/>
<path d="" fill="#27503D" transform="translate(0,0)"/>
<path d="" fill="#4E504F" transform="translate(0,0)"/>
<path d="" fill="#245943" transform="translate(0,0)"/>
<path d="" fill="#4E4F4E" transform="translate(0,0)"/>
<path d="" fill="#4D4F4E" transform="translate(0,0)"/>
<path d="" fill="#2B4F3D" transform="translate(0,0)"/>
<path d="" fill="#4A4F4A" transform="translate(0,0)"/>
<path d="" fill="#4D504C" transform="translate(0,0)"/>
<path d="" fill="#4F504F" transform="translate(0,0)"/>
<path d="" fill="#3C463F" transform="translate(0,0)"/>
<path d="" fill="#255F44" transform="translate(0,0)"/>
<path d="" fill="#4E4F4F" transform="translate(0,0)"/>
<path d="" fill="#2D483B" transform="translate(0,0)"/>
<path d="" fill="#2B4E3D" transform="translate(0,0)"/>
<path d="" fill="#337B5C" transform="translate(0,0)"/>
<path d="" fill="#29523E" transform="translate(0,0)"/>
<path d="" fill="#4E514E" transform="translate(0,0)"/>
<path d="" fill="#246248" transform="translate(0,0)"/>
<path d="" fill="#337F5F" transform="translate(0,0)"/>
<path d="" fill="#4F504E" transform="translate(0,0)"/>
<path d="" fill="#2D483B" transform="translate(0,0)"/>
<path d="" fill="#29BA85" transform="translate(0,0)"/>
<path d="" fill="#3A463F" transform="translate(0,0)"/>
<path d="" fill="#29B981" transform="translate(0,0)"/>
<path d="" fill="#4F4F4F" transform="translate(0,0)"/>
<path d="" fill="#2A5240" transform="translate(0,0)"/>
<path d="" fill="#4E504E" transform="translate(0,0)"/>
<path d="" fill="#25664B" transform="translate(0,0)"/>
<path d="" fill="#328061" transform="translate(0,0)"/>
<path d="" fill="#2B5340" transform="translate(0,0)"/>
<path d="" fill="#295240" transform="translate(0,0)"/>
<path d="" fill="#28BB83" transform="translate(0,0)"/>
<path d="" fill="#2A5542" transform="translate(0,0)"/>
<path d="" fill="#4E504E" transform="translate(0,0)"/>
<path d="" fill="#505150" transform="translate(0,0)"/>
<path d="" fill="#266B4E" transform="translate(0,0)"/>
<path d="" fill="#338161" transform="translate(0,0)"/>
<path d="" fill="#4D514F" transform="translate(0,0)"/>
<path d="" fill="#4F514E" transform="translate(0,0)"/>
<path d="" fill="#31483D" transform="translate(0,0)"/>
<path d="" fill="#2B4E3F" transform="translate(0,0)"/>
<path d="" fill="#275F47" transform="translate(0,0)"/>
<path d="" fill="#31473C" transform="translate(0,0)"/>
<path d="" fill="#314B3F" transform="translate(0,0)"/>
<path d="" fill="#394840" transform="translate(0,0)"/>
<path d="" fill="#4F504E" transform="translate(0,0)"/>
<path d="" fill="#277051" transform="translate(0,0)"/>
<path d="" fill="#338362" transform="translate(0,0)"/>
<path d="" fill="#2D4C3F" transform="translate(0,0)"/>
<path d="" fill="#286249" transform="translate(0,0)"/>
<path d="" fill="#39483F" transform="translate(0,0)"/>
<path d="" fill="#27C085" transform="translate(0,0)"/>
<path d="" fill="#267556" transform="translate(0,0)"/>
<path d="" fill="#29BD83" transform="translate(0,0)"/>
<path d="" fill="#2B4F40" transform="translate(0,0)"/>
<path d="" fill="#27664C" transform="translate(0,0)"/>
<path d="" fill="#297757" transform="translate(0,0)"/>
<path d="" fill="#328362" transform="translate(0,0)"/>
<path d="" fill="#27BE85" transform="translate(0,0)"/>
<path d="" fill="#4E504F" transform="translate(0,0)"/>
<path d="" fill="#277A59" transform="translate(0,0)"/>
<path d="" fill="#338565" transform="translate(0,0)"/>
<path d="" fill="#4D4F4F" transform="translate(0,0)"/>
<path d="" fill="#29684F" transform="translate(0,0)"/>
<path d="" fill="#4E504E" transform="translate(0,0)"/>
<path d="" fill="#2A5D48" transform="translate(0,0)"/>
<path d="" fill="#4E504E" transform="translate(0,0)"/>
<path d="" fill="#27805D" transform="translate(0,0)"/>
<path d="" fill="#328565" transform="translate(0,0)"/>
<path d="" fill="#4D504E" transform="translate(0,0)"/>
<path d="" fill="#4D514E" transform="translate(0,0)"/>
<path d="" fill="#23C085" transform="translate(0,0)"/>
<path d="" fill="#23BF85" transform="translate(0,0)"/>
<path d="" fill="#21BB85" transform="translate(0,0)"/>
<path d="" fill="#20C087" transform="translate(0,0)"/>
<path d="" fill="#4E504E" transform="translate(0,0)"/>
<path d="" fill="#23C589" transform="translate(0,0)"/>
<path d="" fill="#338664" transform="translate(0,0)"/>
<path d="" fill="#2C5543" transform="translate(0,0)"/>
<path d="" fill="#28BE85" transform="translate(0,0)"/>
<path d="" fill="#27BF85" transform="translate(0,0)"/>
<path d="" fill="#25BA80" transform="translate(0,0)"/>
<path d="" fill="#4E4F4E" transform="translate(0,0)"/>
<path d="" fill="#288B64" transform="translate(0,0)"/>
<path d="" fill="#338866" transform="translate(0,0)"/>
<path d="" fill="#27BE86" transform="translate(0,0)"/>
<path d="" fill="#2C5443" transform="translate(0,0)"/>
<path d="" fill="#434845" transform="translate(0,0)"/>
<path d="" fill="#23BB84" transform="translate(0,0)"/>
<path d="" fill="#4E504F" transform="translate(0,0)"/>
<path d="" fill="#515150" transform="translate(0,0)"/>
<path d="" fill="#279268" transform="translate(0,0)"/>
<path d="" fill="#338766" transform="translate(0,0)"/>
<path d="" fill="#4E4F4C" transform="translate(0,0)"/>
<path d="" fill="#37483F" transform="translate(0,0)"/>
<path d="" fill="#297858" transform="translate(0,0)"/>
<path d="" fill="#4E504E" transform="translate(0,0)"/>
<path d="" fill="#29996E" transform="translate(0,0)"/>
<path d="" fill="#338866" transform="translate(0,0)"/>
<path d="" fill="#395648" transform="translate(0,0)"/>
<path d="" fill="#4E504F" transform="translate(0,0)"/>
<path d="" fill="#25BD86" transform="translate(0,0)"/>
<path d="" fill="#36493F" transform="translate(0,0)"/>
<path d="" fill="#2B5A46" transform="translate(0,0)"/>
<path d="" fill="#525151" transform="translate(0,0)"/>
<path d="" fill="#2B9B70" transform="translate(0,0)"/>
<path d="" fill="#26BF86" transform="translate(0,0)"/>
<path d="" fill="#4E514E" transform="translate(0,0)"/>
<path d="" fill="#289F71" transform="translate(0,0)"/>
<path d="" fill="#338666" transform="translate(0,0)"/>
<path d="" fill="#27BE86" transform="translate(0,0)"/>
<path d="" fill="#36483F" transform="translate(0,0)"/>
<path d="" fill="#2A7F5E" transform="translate(0,0)"/>
<path d="" fill="#354A3F" transform="translate(0,0)"/>
<path d="" fill="#28BD84" transform="translate(0,0)"/>
<path d="" fill="#4F514E" transform="translate(0,0)"/>
<path d="" fill="#338867" transform="translate(0,0)"/>
<path d="" fill="#4D504C" transform="translate(0,0)"/>
<path d="" fill="#4E504E" transform="translate(0,0)"/>
<path d="" fill="#28BC86" transform="translate(0,0)"/>
<path d="" fill="#2A8562" transform="translate(0,0)"/>
<path d="" fill="#2F4F3F" transform="translate(0,0)"/>
<path d="" fill="#354A40" transform="translate(0,0)"/>
<path d="" fill="#4E4F4E" transform="translate(0,0)"/>
<path d="" fill="#29AE7C" transform="translate(0,0)"/>
<path d="" fill="#328767" transform="translate(0,0)"/>
<path d="" fill="#4D504E" transform="translate(0,0)"/>
<path d="" fill="#2D5F49" transform="translate(0,0)"/>
<path d="" fill="#2A8964" transform="translate(0,0)"/>
<path d="" fill="#4E504E" transform="translate(0,0)"/>
<path d="" fill="#29B47F" transform="translate(0,0)"/>
<path d="" fill="#308866" transform="translate(0,0)"/>
<path d="" fill="#2B604A" transform="translate(0,0)"/>
<path d="" fill="#2A8E68" transform="translate(0,0)"/>
<path d="" fill="#4E514E" transform="translate(0,0)"/>
<path d="" fill="#2B7557" transform="translate(0,0)"/>
<path d="" fill="#338767" transform="translate(0,0)"/>
<path d="" fill="#27BC86" transform="translate(0,0)"/>
<path d="" fill="#4F514F" transform="translate(0,0)"/>
<path d="" fill="#344A3F" transform="translate(0,0)"/>
<path d="" fill="#26BF85" transform="translate(0,0)"/>
<path d="" fill="#4E504D" transform="translate(0,0)"/>
<path d="" fill="#338968" transform="translate(0,0)"/>
<path d="" fill="#4E504F" transform="translate(0,0)"/>
<path d="" fill="#2C7A5A" transform="translate(0,0)"/>
<path d="" fill="#2C624B" transform="translate(0,0)"/>
<path d="" fill="#4E514E" transform="translate(0,0)"/>
<path d="" fill="#23C98F" transform="translate(0,0)"/>
<path d="" fill="#484F4D" transform="translate(0,0)"/>
<path d="" fill="#4E504F" transform="translate(0,0)"/>
<path d="" fill="#338968" transform="translate(0,0)"/>
<path d="" fill="#4E504F" transform="translate(0,0)"/>
<path d="" fill="#2C7E5D" transform="translate(0,0)"/>
<path d="" fill="#2B9A6F" transform="translate(0,0)"/>
<path d="" fill="#4E514D" transform="translate(0,0)"/>
<path d="" fill="#25C98F" transform="translate(0,0)"/>
<path d="" fill="#334E3F" transform="translate(0,0)"/>
<path d="" fill="#4F514F" transform="translate(0,0)"/>
<path d="" fill="#4D4F4E" transform="translate(0,0)"/>
<path d="" fill="#2C684F" transform="translate(0,0)"/>
<path d="" fill="#2D5342" transform="translate(0,0)"/>
<path d="" fill="#2B604A" transform="translate(0,0)"/>
<path d="" fill="#334E40" transform="translate(0,0)"/>
<path d="" fill="#28C38B" transform="translate(0,0)"/>
<path d="" fill="#26C087" transform="translate(0,0)"/>
<path d="" fill="#4F514E" transform="translate(0,0)"/>
<path d="" fill="#26C185" transform="translate(0,0)"/>
<path d="" fill="#2D6A50" transform="translate(0,0)"/>
<path d="" fill="#20C68D" transform="translate(0,0)"/>
<path d="" fill="#4F514F" transform="translate(0,0)"/>
<path d="" fill="#328A69" transform="translate(0,0)"/>
<path d="" fill="#4E504F" transform="translate(0,0)"/>
<path d="" fill="#304C3F" transform="translate(0,0)"/>
<path d="" fill="#2E8563" transform="translate(0,0)"/>
<path d="" fill="#4C4F4C" transform="translate(0,0)"/>
<path d="" fill="#4A4F4C" transform="translate(0,0)"/>
<path d="" fill="#28C28B" transform="translate(0,0)"/>
<path d="" fill="#4F504F" transform="translate(0,0)"/>
<path d="" fill="#328969" transform="translate(0,0)"/>
<path d="" fill="#4F504F" transform="translate(0,0)"/>
<path d="" fill="#2E6E53" transform="translate(0,0)"/>
<path d="" fill="#2D8864" transform="translate(0,0)"/>
<path d="" fill="#4E514D" transform="translate(0,0)"/>
<path d="" fill="#2E8764" transform="translate(0,0)"/>
<path d="" fill="#27BC84" transform="translate(0,0)"/>
<path d="" fill="#24CA8F" transform="translate(0,0)"/>
<path d="" fill="#27BF87" transform="translate(0,0)"/>
<path d="" fill="#4C504C" transform="translate(0,0)"/>
<path d="" fill="#50504F" transform="translate(0,0)"/>
<path d="" fill="#318967" transform="translate(0,0)"/>
<path d="" fill="#24C68A" transform="translate(0,0)"/>
<path d="" fill="#4B4D4A" transform="translate(0,0)"/>
<path d="" fill="#2E8D67" transform="translate(0,0)"/>
<path d="" fill="#4A4F4B" transform="translate(0,0)"/>
<path d="" fill="#4F514F" transform="translate(0,0)"/>
<path d="" fill="#328967" transform="translate(0,0)"/>
<path d="" fill="#4F4F4F" transform="translate(0,0)"/>
<path d="" fill="#2D7056" transform="translate(0,0)"/>
<path d="" fill="#26C188" transform="translate(0,0)"/>
<path d="" fill="#2E5B47" transform="translate(0,0)"/>
<path d="" fill="#27BF85" transform="translate(0,0)"/>
<path d="" fill="#4F514F" transform="translate(0,0)"/>
<path d="" fill="#28BF84" transform="translate(0,0)"/>
<path d="" fill="#328968" transform="translate(0,0)"/>
<path d="" fill="#4D504F" transform="translate(0,0)"/>
<path d="" fill="#2E5B46" transform="translate(0,0)"/>
<path d="" fill="#2E8D68" transform="translate(0,0)"/>
<path d="" fill="#2AC18A" transform="translate(0,0)"/>
<path d="" fill="#4F5250" transform="translate(0,0)"/>
<path d="" fill="#505150" transform="translate(0,0)"/>
<path d="" fill="#338867" transform="translate(0,0)"/>
<path d="" fill="#4E504E" transform="translate(0,0)"/>
<path d="" fill="#2F7557" transform="translate(0,0)"/>
<path d="" fill="#29C189" transform="translate(0,0)"/>
<path d="" fill="#4A4F4A" transform="translate(0,0)"/>
<path d="" fill="#4F514F" transform="translate(0,0)"/>
<path d="" fill="#51514F" transform="translate(0,0)"/>
<path d="" fill="#338966" transform="translate(0,0)"/>
<path d="" fill="#4F5050" transform="translate(0,0)"/>
<path d="" fill="#2ABF87" transform="translate(0,0)"/>
<path d="" fill="#50514F" transform="translate(0,0)"/>
<path d="" fill="#2F7559" transform="translate(0,0)"/>
<path d="" fill="#2DB683" transform="translate(0,0)"/>
<path d="" fill="#2F956D" transform="translate(0,0)"/>
<path d="" fill="#4F504F" transform="translate(0,0)"/>
<path d="" fill="#515251" transform="translate(0,0)"/>
<path d="" fill="#4D5050" transform="translate(0,0)"/>
<path d="" fill="#2F7659" transform="translate(0,0)"/>
<path d="" fill="#2AB884" transform="translate(0,0)"/>
<path d="" fill="#29CD90" transform="translate(0,0)"/>
<path d="" fill="#4F504E" transform="translate(0,0)"/>
<path d="" fill="#335343" transform="translate(0,0)"/>
<path d="" fill="#3F4743" transform="translate(0,0)"/>
<path d="" fill="#4B514B" transform="translate(0,0)"/>
<path d="" fill="#4F514F" transform="translate(0,0)"/>
<path d="" fill="#2AB984" transform="translate(0,0)"/>
<path d="" fill="#4E514D" transform="translate(0,0)"/>
<path d="" fill="#325444" transform="translate(0,0)"/>
<path d="" fill="#4E514F" transform="translate(0,0)"/>
<path d="" fill="#4F5150" transform="translate(0,0)"/>
<path d="" fill="#4E514F" transform="translate(0,0)"/>
<path d="" fill="#325241" transform="translate(0,0)"/>
<path d="" fill="#2BB985" transform="translate(0,0)"/>
<path d="" fill="#23CB8D" transform="translate(0,0)"/>
<path d="" fill="#325344" transform="translate(0,0)"/>
<path d="" fill="#50514F" transform="translate(0,0)"/>
<path d="" fill="#2F956E" transform="translate(0,0)"/>
<path d="" fill="#26C28A" transform="translate(0,0)"/>
<path d="" fill="#4F5150" transform="translate(0,0)"/>
<path d="" fill="#21C98D" transform="translate(0,0)"/>
<path d="" fill="#338464" transform="translate(0,0)"/>
<path d="" fill="#23C68C" transform="translate(0,0)"/>
<path d="" fill="#535450" transform="translate(0,0)"/>
<path d="" fill="#4E504E" transform="translate(0,0)"/>
<path d="" fill="#4E504F" transform="translate(0,0)"/>
<path d="" fill="#2D7758" transform="translate(0,0)"/>
<path d="" fill="#23CB90" transform="translate(0,0)"/>
<path d="" fill="#4B4E4C" transform="translate(0,0)"/>
<path d="" fill="#24C78E" transform="translate(0,0)"/>
<path d="" fill="#324D40" transform="translate(0,0)"/>
<path d="" fill="#328363" transform="translate(0,0)"/>
<path d="" fill="#2D775B" transform="translate(0,0)"/>
<path d="" fill="#4C4E4B" transform="translate(0,0)"/>
<path d="" fill="#4E504F" transform="translate(0,0)"/>
<path d="" fill="#4D504F" transform="translate(0,0)"/>
<path d="" fill="#2E775A" transform="translate(0,0)"/>
<path d="" fill="#2AB883" transform="translate(0,0)"/>
<path d="" fill="#26C18A" transform="translate(0,0)"/>
<path d="" fill="#21C98E" transform="translate(0,0)"/>
<path d="" fill="#325344" transform="translate(0,0)"/>
<path d="" fill="#494D4A" transform="translate(0,0)"/>
<path d="" fill="#4D504E" transform="translate(0,0)"/>
<path d="" fill="#327F61" transform="translate(0,0)"/>
<path d="" fill="#2F926A" transform="translate(0,0)"/>
<path d="" fill="#27C288" transform="translate(0,0)"/>
<path d="" fill="#27C38C" transform="translate(0,0)"/>
<path d="" fill="#484D4A" transform="translate(0,0)"/>
<path d="" fill="#4F514E" transform="translate(0,0)"/>
<path d="" fill="#327E61" transform="translate(0,0)"/>
<path d="" fill="#2F906A" transform="translate(0,0)"/>
<path d="" fill="#325344" transform="translate(0,0)"/>
<path d="" fill="#4C514E" transform="translate(0,0)"/>
<path d="" fill="#4E514E" transform="translate(0,0)"/>
<path d="" fill="#317D60" transform="translate(0,0)"/>
<path d="" fill="#2D7258" transform="translate(0,0)"/>
<path d="" fill="#2C5C47" transform="translate(0,0)"/>
<path d="" fill="#4E4F4E" transform="translate(0,0)"/>
<path d="" fill="#317B5E" transform="translate(0,0)"/>
<path d="" fill="#4D4F4F" transform="translate(0,0)"/>
<path d="" fill="#2D7257" transform="translate(0,0)"/>
<path d="" fill="#4E504E" transform="translate(0,0)"/>
<path d="" fill="#505251" transform="translate(0,0)"/>
<path d="" fill="#30795D" transform="translate(0,0)"/>
<path d="" fill="#21CA8C" transform="translate(0,0)"/>
<path d="" fill="#2E8C67" transform="translate(0,0)"/>
<path d="" fill="#4B4E4A" transform="translate(0,0)"/>
<path d="" fill="#4E4F4E" transform="translate(0,0)"/>
<path d="" fill="#31765C" transform="translate(0,0)"/>
<path d="" fill="#2B7155" transform="translate(0,0)"/>
<path d="" fill="#494C4A" transform="translate(0,0)"/>
<path d="" fill="#315142" transform="translate(0,0)"/>
<path d="" fill="#4D504E" transform="translate(0,0)"/>
<path d="" fill="#30755A" transform="translate(0,0)"/>
<path d="" fill="#2D7357" transform="translate(0,0)"/>
<path d="" fill="#2D8864" transform="translate(0,0)"/>
<path d="" fill="#4E504E" transform="translate(0,0)"/>
<path d="" fill="#24CA8F" transform="translate(0,0)"/>
<path d="" fill="#26C189" transform="translate(0,0)"/>
<path d="" fill="#31745A" transform="translate(0,0)"/>
<path d="" fill="#305041" transform="translate(0,0)"/>
<path d="" fill="#2B6E53" transform="translate(0,0)"/>
<path d="" fill="#2E8563" transform="translate(0,0)"/>
<path d="" fill="#4D4F4D" transform="translate(0,0)"/>
<path d="" fill="#22C188" transform="translate(0,0)"/>
<path d="" fill="#26CA8F" transform="translate(0,0)"/>
<path d="" fill="#2F7258" transform="translate(0,0)"/>
<path d="" fill="#4C4E4D" transform="translate(0,0)"/>
<path d="" fill="#2BA276" transform="translate(0,0)"/>
<path d="" fill="#2AA475" transform="translate(0,0)"/>
<path d="" fill="#4C4F4D" transform="translate(0,0)"/>
<path d="" fill="#4D4E4E" transform="translate(0,0)"/>
<path d="" fill="#21C78D" transform="translate(0,0)"/>
<path d="" fill="#474D49" transform="translate(0,0)"/>
<path d="" fill="#4D4E4D" transform="translate(0,0)"/>
<path d="" fill="#505250" transform="translate(0,0)"/>
<path d="" fill="#307057" transform="translate(0,0)"/>
<path d="" fill="#4C4F4D" transform="translate(0,0)"/>
<path d="" fill="#2C6B51" transform="translate(0,0)"/>
<path d="" fill="#2C5845" transform="translate(0,0)"/>
<path d="" fill="#4D4E4D" transform="translate(0,0)"/>
<path d="" fill="#306F56" transform="translate(0,0)"/>
<path d="" fill="#4D4E4E" transform="translate(0,0)"/>
<path d="" fill="#2B9D71" transform="translate(0,0)"/>
<path d="" fill="#22CA8D" transform="translate(0,0)"/>
<path d="" fill="#4D4E4D" transform="translate(0,0)"/>
<path d="" fill="#28C189" transform="translate(0,0)"/>
<path d="" fill="#25BF86" transform="translate(0,0)"/>
<path d="" fill="#306E55" transform="translate(0,0)"/>
<path d="" fill="#2B674F" transform="translate(0,0)"/>
<path d="" fill="#2A9A6F" transform="translate(0,0)"/>
<path d="" fill="#22CA91" transform="translate(0,0)"/>
<path d="" fill="#29BC85" transform="translate(0,0)"/>
<path d="" fill="#4D4F4D" transform="translate(0,0)"/>
<path d="" fill="#27B884" transform="translate(0,0)"/>
<path d="" fill="#2F6C54" transform="translate(0,0)"/>
<path d="" fill="#2B664E" transform="translate(0,0)"/>
<path d="" fill="#494C49" transform="translate(0,0)"/>
<path d="" fill="#23CA93" transform="translate(0,0)"/>
<path d="" fill="#324D40" transform="translate(0,0)"/>
<path d="" fill="#474A47" transform="translate(0,0)"/>
<path d="" fill="#4D4E4E" transform="translate(0,0)"/>
<path d="" fill="#28B380" transform="translate(0,0)"/>
<path d="" fill="#2F6952" transform="translate(0,0)"/>
<path d="" fill="#2B644C" transform="translate(0,0)"/>
<path d="" fill="#2B7759" transform="translate(0,0)"/>
<path d="" fill="#2B9068" transform="translate(0,0)"/>
<path d="" fill="#4D4E4C" transform="translate(0,0)"/>
<path d="" fill="#334D40" transform="translate(0,0)"/>
<path d="" fill="#4D4F4D" transform="translate(0,0)"/>
<path d="" fill="#28AD7C" transform="translate(0,0)"/>
<path d="" fill="#2D6751" transform="translate(0,0)"/>
<path d="" fill="#4C4E4E" transform="translate(0,0)"/>
<path d="" fill="#4D504D" transform="translate(0,0)"/>
<path d="" fill="#28BF88" transform="translate(0,0)"/>
<path d="" fill="#25CE91" transform="translate(0,0)"/>
<path d="" fill="#27BA83" transform="translate(0,0)"/>
<path d="" fill="#23CD90" transform="translate(0,0)"/>
<path d="" fill="#23CE92" transform="translate(0,0)"/>
<path d="" fill="#20BF87" transform="translate(0,0)"/>
<path d="" fill="#324D3F" transform="translate(0,0)"/>
<path d="" fill="#2D6750" transform="translate(0,0)"/>
<path d="" fill="#4C4E4D" transform="translate(0,0)"/>
<path d="" fill="#24C68B" transform="translate(0,0)"/>
<path d="" fill="#24CC92" transform="translate(0,0)"/>
<path d="" fill="#23C38C" transform="translate(0,0)"/>
<path d="" fill="#24BB85" transform="translate(0,0)"/>
<path d="" fill="#24B583" transform="translate(0,0)"/>
<path d="" fill="#25C890" transform="translate(0,0)"/>
<path d="" fill="#334B3E" transform="translate(0,0)"/>
<path d="" fill="#4E4F4E" transform="translate(0,0)"/>
<path d="" fill="#29A376" transform="translate(0,0)"/>
<path d="" fill="#23C893" transform="translate(0,0)"/>
<path d="" fill="#24CC90" transform="translate(0,0)"/>
<path d="" fill="#2D654F" transform="translate(0,0)"/>
<path d="" fill="#4C4D4E" transform="translate(0,0)"/>
<path d="" fill="#2B614A" transform="translate(0,0)"/>
<path d="" fill="#2C7155" transform="translate(0,0)"/>
<path d="" fill="#25CA8F" transform="translate(0,0)"/>
<path d="" fill="#28B581" transform="translate(0,0)"/>
<path d="" fill="#334C3E" transform="translate(0,0)"/>
<path d="" fill="#4D4E4E" transform="translate(0,0)"/>
<path d="" fill="#4D4F4D" transform="translate(0,0)"/>
<path d="" fill="#279F72" transform="translate(0,0)"/>
<path d="" fill="#2E624D" transform="translate(0,0)"/>
<path d="" fill="#25BF87" transform="translate(0,0)"/>
<path d="" fill="#2E513F" transform="translate(0,0)"/>
<path d="" fill="#27986F" transform="translate(0,0)"/>
<path d="" fill="#2E604B" transform="translate(0,0)"/>
<path d="" fill="#4C4D4E" transform="translate(0,0)"/>
<path d="" fill="#24C18A" transform="translate(0,0)"/>
<path d="" fill="#2C5C47" transform="translate(0,0)"/>
<path d="" fill="#24C389" transform="translate(0,0)"/>
<path d="" fill="#25C289" transform="translate(0,0)"/>
<path d="" fill="#4D4E4D" transform="translate(0,0)"/>
<path d="" fill="#29936B" transform="translate(0,0)"/>
<path d="" fill="#2F5D4A" transform="translate(0,0)"/>
<path d="" fill="#2C5A47" transform="translate(0,0)"/>
<path d="" fill="#22C088" transform="translate(0,0)"/>
<path d="" fill="#4D4D4E" transform="translate(0,0)"/>
<path d="" fill="#278E68" transform="translate(0,0)"/>
<path d="" fill="#2E5B4A" transform="translate(0,0)"/>
<path d="" fill="#25BD86" transform="translate(0,0)"/>
<path d="" fill="#2A654C" transform="translate(0,0)"/>
<path d="" fill="#484B48" transform="translate(0,0)"/>
<path d="" fill="#4C4D4D" transform="translate(0,0)"/>
<path d="" fill="#288864" transform="translate(0,0)"/>
<path d="" fill="#2F5B48" transform="translate(0,0)"/>
<path d="" fill="#4C4F4D" transform="translate(0,0)"/>
<path d="" fill="#2C5645" transform="translate(0,0)"/>
<path d="" fill="#4D4E4D" transform="translate(0,0)"/>
<path d="" fill="#278260" transform="translate(0,0)"/>
<path d="" fill="#2F5746" transform="translate(0,0)"/>
<path d="" fill="#2D5445" transform="translate(0,0)"/>
<path d="" fill="#2A6E52" transform="translate(0,0)"/>
<path d="" fill="#4D4E4D" transform="translate(0,0)"/>
<path d="" fill="#2C614A" transform="translate(0,0)"/>
<path d="" fill="#4D4E4C" transform="translate(0,0)"/>
<path d="" fill="#277E5C" transform="translate(0,0)"/>
<path d="" fill="#4C4D4D" transform="translate(0,0)"/>
<path d="" fill="#2D5343" transform="translate(0,0)"/>
<path d="" fill="#304A3D" transform="translate(0,0)"/>
<path d="" fill="#2B5E49" transform="translate(0,0)"/>
<path d="" fill="#4D4D4D" transform="translate(0,0)"/>
<path d="" fill="#2B5C47" transform="translate(0,0)"/>
<path d="" fill="#297759" transform="translate(0,0)"/>
<path d="" fill="#305445" transform="translate(0,0)"/>
<path d="" fill="#4C4D4D" transform="translate(0,0)"/>
<path d="" fill="#34453D" transform="translate(0,0)"/>
<path d="" fill="#4D4D4D" transform="translate(0,0)"/>
<path d="" fill="#2E5242" transform="translate(0,0)"/>
<path d="" fill="#29674E" transform="translate(0,0)"/>
<path d="" fill="#2C5B47" transform="translate(0,0)"/>
<path d="" fill="#4D4E4C" transform="translate(0,0)"/>
<path d="" fill="#39453E" transform="translate(0,0)"/>
<path d="" fill="#277356" transform="translate(0,0)"/>
<path d="" fill="#2F5243" transform="translate(0,0)"/>
<path d="" fill="#4C4D4D" transform="translate(0,0)"/>
<path d="" fill="#2E5242" transform="translate(0,0)"/>
<path d="" fill="#32473D" transform="translate(0,0)"/>
<path d="" fill="#4C4D4D" transform="translate(0,0)"/>
<path d="" fill="#2B634C" transform="translate(0,0)"/>
<path d="" fill="#4C4D4D" transform="translate(0,0)"/>
<path d="" fill="#38443E" transform="translate(0,0)"/>
<path d="" fill="#286E51" transform="translate(0,0)"/>
<path d="" fill="#305041" transform="translate(0,0)"/>
<path d="" fill="#4B4C4C" transform="translate(0,0)"/>
<path d="" fill="#2F4F42" transform="translate(0,0)"/>
<path d="" fill="#33473D" transform="translate(0,0)"/>
<path d="" fill="#2B6B51" transform="translate(0,0)"/>
<path d="" fill="#37463F" transform="translate(0,0)"/>
<path d="" fill="#4C4E4D" transform="translate(0,0)"/>
<path d="" fill="#314E40" transform="translate(0,0)"/>
<path d="" fill="#4B4B4B" transform="translate(0,0)"/>
<path d="" fill="#484A47" transform="translate(0,0)"/>
<path d="" fill="#4C4E4C" transform="translate(0,0)"/>
<path d="" fill="#28634C" transform="translate(0,0)"/>
<path d="" fill="#4C4C4D" transform="translate(0,0)"/>
<path d="" fill="#2A5A45" transform="translate(0,0)"/>
<path d="" fill="#33453D" transform="translate(0,0)"/>
<path d="" fill="#2E4C3E" transform="translate(0,0)"/>
<path d="" fill="#39443E" transform="translate(0,0)"/>
<path d="" fill="#4C4D4C" transform="translate(0,0)"/>
<path d="" fill="#4E4E4C" transform="translate(0,0)"/>
<path d="" fill="#286049" transform="translate(0,0)"/>
<path d="" fill="#32483F" transform="translate(0,0)"/>
<path d="" fill="#2E4F40" transform="translate(0,0)"/>
<path d="" fill="#4A4A49" transform="translate(0,0)"/>
<path d="" fill="#3A453F" transform="translate(0,0)"/>
<path d="" fill="#4C4D4D" transform="translate(0,0)"/>
<path d="" fill="#4C4D4C" transform="translate(0,0)"/>
<path d="" fill="#295B46" transform="translate(0,0)"/>
<path d="" fill="#32483E" transform="translate(0,0)"/>
<path d="" fill="#4B4D4D" transform="translate(0,0)"/>
<path d="" fill="#31493E" transform="translate(0,0)"/>
<path d="" fill="#2B5342" transform="translate(0,0)"/>
<path d="" fill="#3C453F" transform="translate(0,0)"/>
<path d="" fill="#4D4E4D" transform="translate(0,0)"/>
<path d="" fill="#285844" transform="translate(0,0)"/>
<path d="" fill="#4C4C4C" transform="translate(0,0)"/>
<path d="" fill="#3C423E" transform="translate(0,0)"/>
<path d="" fill="#30463D" transform="translate(0,0)"/>
<path d="" fill="#4D4D4D" transform="translate(0,0)"/>
<path d="" fill="#295442" transform="translate(0,0)"/>
<path d="" fill="#33473E" transform="translate(0,0)"/>
<path d="" fill="#36453D" transform="translate(0,0)"/>
<path d="" fill="#2C4E40" transform="translate(0,0)"/>
<path d="" fill="#2D5242" transform="translate(0,0)"/>
<path d="" fill="#4A494B" transform="translate(0,0)"/>
<path d="" fill="#304B3D" transform="translate(0,0)"/>
<path d="" fill="#494A48" transform="translate(0,0)"/>
<path d="" fill="#4C4D4D" transform="translate(0,0)"/>
<path d="" fill="#2A5040" transform="translate(0,0)"/>
<path d="" fill="#34463D" transform="translate(0,0)"/>
<path d="" fill="#33453D" transform="translate(0,0)"/>
<path d="" fill="#304B3E" transform="translate(0,0)"/>
<path d="" fill="#39443E" transform="translate(0,0)"/>
<path d="" fill="#2C4E3F" transform="translate(0,0)"/>
<path d="" fill="#494A4A" transform="translate(0,0)"/>
<path d="" fill="#4C4C4D" transform="translate(0,0)"/>
<path d="" fill="#2B4D3E" transform="translate(0,0)"/>
<path d="" fill="#36453D" transform="translate(0,0)"/>
<path d="" fill="#36433D" transform="translate(0,0)"/>
<path d="" fill="#2F493D" transform="translate(0,0)"/>
<path d="" fill="#3E4541" transform="translate(0,0)"/>
<path d="" fill="#4B4B49" transform="translate(0,0)"/>
<path d="" fill="#4C4C4C" transform="translate(0,0)"/>
<path d="" fill="#2B4B3E" transform="translate(0,0)"/>
<path d="" fill="#36453E" transform="translate(0,0)"/>
<path d="" fill="#4C4C4C" transform="translate(0,0)"/>
<path d="" fill="#3A433D" transform="translate(0,0)"/>
<path d="" fill="#34463C" transform="translate(0,0)"/>
<path d="" fill="#2E4A3D" transform="translate(0,0)"/>
<path d="" fill="#2E4C3D" transform="translate(0,0)"/>
<path d="" fill="#4D4D4D" transform="translate(0,0)"/>
<path d="" fill="#2C493C" transform="translate(0,0)"/>
<path d="" fill="#36443C" transform="translate(0,0)"/>
<path d="" fill="#494A49" transform="translate(0,0)"/>
<path d="" fill="#404541" transform="translate(0,0)"/>
<path d="" fill="#36453C" transform="translate(0,0)"/>
<path d="" fill="#4D4C4C" transform="translate(0,0)"/>
<path d="" fill="#34443C" transform="translate(0,0)"/>
<path d="" fill="#2C473C" transform="translate(0,0)"/>
<path d="" fill="#38423E" transform="translate(0,0)"/>
<path d="" fill="#404241" transform="translate(0,0)"/>
<path d="" fill="#31453C" transform="translate(0,0)"/>
<path d="" fill="#4C4B4A" transform="translate(0,0)"/>
<path d="" fill="#4C4D4B" transform="translate(0,0)"/>
<path d="" fill="#3B423E" transform="translate(0,0)"/>
<path d="" fill="#2D463C" transform="translate(0,0)"/>
<path d="" fill="#38443F" transform="translate(0,0)"/>
<path d="" fill="#37443D" transform="translate(0,0)"/>
<path d="" fill="#33443C" transform="translate(0,0)"/>
<path d="" fill="#31463D" transform="translate(0,0)"/>
<path d="" fill="#37443C" transform="translate(0,0)"/>
<path d="" fill="#4C4C4C" transform="translate(0,0)"/>
<path d="" fill="#36433C" transform="translate(0,0)"/>
<path d="" fill="#2F443C" transform="translate(0,0)"/>
<path d="" fill="#2C453B" transform="translate(0,0)"/>
<path d="" fill="#3A443E" transform="translate(0,0)"/>
<path d="" fill="#3B433F" transform="translate(0,0)"/>
<path d="" fill="#33443B" transform="translate(0,0)"/>
<path d="" fill="#38443C" transform="translate(0,0)"/>
<path d="" fill="#4C4C4B" transform="translate(0,0)"/>
<path d="" fill="#30433A" transform="translate(0,0)"/>
<path d="" fill="#414543" transform="translate(0,0)"/>
<path d="" fill="#3B423E" transform="translate(0,0)"/>
<path d="" fill="#33433B" transform="translate(0,0)"/>
<path d="" fill="#3E443F" transform="translate(0,0)"/>
<path d="" fill="#39443D" transform="translate(0,0)"/>
<path d="" fill="#4C4C4D" transform="translate(0,0)"/>
<path d="" fill="#31433A" transform="translate(0,0)"/>
<path d="" fill="#3A4341" transform="translate(0,0)"/>
<path d="" fill="#3B413E" transform="translate(0,0)"/>
<path d="" fill="#35423C" transform="translate(0,0)"/>
<path d="" fill="#39433D" transform="translate(0,0)"/>
<path d="" fill="#33423B" transform="translate(0,0)"/>
<path d="" fill="#434643" transform="translate(0,0)"/>
<path d="" fill="#39443D" transform="translate(0,0)"/>
<path d="" fill="#4C4C4C" transform="translate(0,0)"/>
<path d="" fill="#434644" transform="translate(0,0)"/>
<path d="" fill="#32413A" transform="translate(0,0)"/>
<path d="" fill="#3B4340" transform="translate(0,0)"/>
<path d="" fill="#3D433F" transform="translate(0,0)"/>
<path d="" fill="#304038" transform="translate(0,0)"/>
<path d="" fill="#4A494A" transform="translate(0,0)"/>
<path d="" fill="#4D4D4B" transform="translate(0,0)"/>
<path d="" fill="#33403B" transform="translate(0,0)"/>
<path d="" fill="#3C4240" transform="translate(0,0)"/>
<path d="" fill="#4B4B4C" transform="translate(0,0)"/>
<path d="" fill="#3C433E" transform="translate(0,0)"/>
<path d="" fill="#37423B" transform="translate(0,0)"/>
<path d="" fill="#424542" transform="translate(0,0)"/>
<path d="" fill="#36413A" transform="translate(0,0)"/>
<path d="" fill="#454745" transform="translate(0,0)"/>
<path d="" fill="#4C4C4C" transform="translate(0,0)"/>
<path d="" fill="#34403B" transform="translate(0,0)"/>
<path d="" fill="#3D423F" transform="translate(0,0)"/>
<path d="" fill="#3E4340" transform="translate(0,0)"/>
<path d="" fill="#3F443F" transform="translate(0,0)"/>
<path d="" fill="#38403A" transform="translate(0,0)"/>
<path d="" fill="#4C4D4B" transform="translate(0,0)"/>
<path d="" fill="#3D443E" transform="translate(0,0)"/>
<path d="" fill="#4B4C4B" transform="translate(0,0)"/>
<path d="" fill="#36413A" transform="translate(0,0)"/>
<path d="" fill="#3D4341" transform="translate(0,0)"/>
<path d="" fill="#4C4C4B" transform="translate(0,0)"/>
<path d="" fill="#334038" transform="translate(0,0)"/>
<path d="" fill="#454845" transform="translate(0,0)"/>
<path d="" fill="#3D443E" transform="translate(0,0)"/>
<path d="" fill="#4C4D4C" transform="translate(0,0)"/>
<path d="" fill="#4E4E4E" transform="translate(0,0)"/>
<path d="" fill="#373F3B" transform="translate(0,0)"/>
<path d="" fill="#3F4341" transform="translate(0,0)"/>
<path d="" fill="#454844" transform="translate(0,0)"/>
<path d="" fill="#404341" transform="translate(0,0)"/>
<path d="" fill="#3E423E" transform="translate(0,0)"/>
<path d="" fill="#3E423F" transform="translate(0,0)"/>
<path d="" fill="#3E4340" transform="translate(0,0)"/>
<path d="" fill="#464845" transform="translate(0,0)"/>
<path d="" fill="#494B4A" transform="translate(0,0)"/>
<path d="" fill="#4B4C4C" transform="translate(0,0)"/>
<path d="" fill="#4A4B4A" transform="translate(0,0)"/>
<path d="" fill="#4C4D4C" transform="translate(0,0)"/>
<path d="" fill="#3D423F" transform="translate(0,0)"/>
<path d="" fill="#38403C" transform="translate(0,0)"/>
<path d="" fill="#343D39" transform="translate(0,0)"/>
<path d="" fill="#414443" transform="translate(0,0)"/>
<path d="" fill="#4C4C4C" transform="translate(0,0)"/>
<path d="" fill="#424342" transform="translate(0,0)"/>
<path d="" fill="#3B423E" transform="translate(0,0)"/>
<path d="" fill="#404440" transform="translate(0,0)"/>
<path d="" fill="#4C4D4B" transform="translate(0,0)"/>
<path d="" fill="#3A403D" transform="translate(0,0)"/>
<path d="" fill="#373F36" transform="translate(0,0)"/>
<path d="" fill="#38413A" transform="translate(0,0)"/>
<path d="" fill="#4C4B4C" transform="translate(0,0)"/>
<path d="" fill="#494C48" transform="translate(0,0)"/>
<path d="" fill="#4D4C4C" transform="translate(0,0)"/>
<path d="" fill="#454546" transform="translate(0,0)"/>
<path d="" fill="#38403C" transform="translate(0,0)"/>
<path d="" fill="#414342" transform="translate(0,0)"/>
<path d="" fill="#4B4C4D" transform="translate(0,0)"/>
<path d="" fill="#474747" transform="translate(0,0)"/>
<path d="" fill="#3A403C" transform="translate(0,0)"/>
<path d="" fill="#434641" transform="translate(0,0)"/>
<path d="" fill="#414542" transform="translate(0,0)"/>
<path d="" fill="#4D4D4C" transform="translate(0,0)"/>
<path d="" fill="#3A413B" transform="translate(0,0)"/>
<path d="" fill="#414543" transform="translate(0,0)"/>
<path d="" fill="#4C4C4C" transform="translate(0,0)"/>
<path d="" fill="#434544" transform="translate(0,0)"/>
<path d="" fill="#454845" transform="translate(0,0)"/>
<path d="" fill="#424442" transform="translate(0,0)"/>
<path d="" fill="#3C4340" transform="translate(0,0)"/>
<path d="" fill="#4B4B4B" transform="translate(0,0)"/>
<path d="" fill="#414641" transform="translate(0,0)"/>
<path d="" fill="#404542" transform="translate(0,0)"/>
<path d="" fill="#3A413D" transform="translate(0,0)"/>
<path d="" fill="#373E3C" transform="translate(0,0)"/>
<path d="" fill="#424544" transform="translate(0,0)"/>
<path d="" fill="#4B4C4D" transform="translate(0,0)"/>
<path d="" fill="#444545" transform="translate(0,0)"/>
<path d="" fill="#3E4340" transform="translate(0,0)"/>
<path d="" fill="#4C4C4C" transform="translate(0,0)"/>
<path d="" fill="#3B423D" transform="translate(0,0)"/>
<path d="" fill="#434743" transform="translate(0,0)"/>
<path d="" fill="#4E4D4C" transform="translate(0,0)"/>
<path d="" fill="#3B413E" transform="translate(0,0)"/>
<path d="" fill="#434646" transform="translate(0,0)"/>
<path d="" fill="#454645" transform="translate(0,0)"/>
<path d="" fill="#4B4A4B" transform="translate(0,0)"/>
<path d="" fill="#4C4C4C" transform="translate(0,0)"/>
<path d="" fill="#4E4E4E" transform="translate(0,0)"/>
<path d="" fill="#3C433F" transform="translate(0,0)"/>
<path d="" fill="#393E3C" transform="translate(0,0)"/>
<path d="" fill="#444644" transform="translate(0,0)"/>
<path d="" fill="#4C4C4E" transform="translate(0,0)"/>
<path d="" fill="#4A494A" transform="translate(0,0)"/>
<path d="" fill="#404541" transform="translate(0,0)"/>
<path d="" fill="#40433F" transform="translate(0,0)"/>
<path d="" fill="#424545" transform="translate(0,0)"/>
</svg>
